<svg xmlns="http://www.w3.org/2000/svg" width="591.261" height="470.417" viewBox="0 0 591.261 470.417"><defs><style>.a{fill:#888d72;}.a,.b,.f,.g{font-size:18px;font-family:Poppins-SemiBold, Poppins;font-weight:600;}.b{fill:#3a5159;}.c,.d{fill:none;stroke-miterlimit:10;}.c{stroke:#3a5159;}.d{stroke:#888d72;stroke-width:0.5px;}.e,.g{fill:#d3403b;}.f{fill:#ede5ce;}</style></defs><g transform="translate(-211 -9418)"><text class="a" transform="translate(747.261 9745.854)"><tspan x="-54.108" y="0">check route</tspan></text><text class="a" transform="translate(587.174 9745.854)"><tspan x="-51.291" y="0">add events</tspan></text><text class="a" transform="translate(427.087 9745.854)"><tspan x="-54.711" y="0">check past/</tspan><tspan x="-62.739" y="21.6">upcoming list</tspan></text><text class="a" transform="translate(267 9745.854)"><tspan x="-55.638" y="0">daily events</tspan><tspan x="-13.401" y="21.6">list</tspan></text><text class="b" transform="translate(427.166 9594.185)"><tspan x="-51.507" y="0">current trip</tspan></text><rect class="c" width="130.462" height="27.223" transform="translate(361.934 9573.715)"/><text class="b" transform="translate(267.001 9670.579)"><tspan x="-41.364" y="0">calendar</tspan></text><text class="b" transform="translate(427.088 9670.579)"><tspan x="-41.868" y="0">to-do list</tspan></text><text class="b" transform="translate(587.174 9665.827)"><tspan x="-32.787" y="0">nearby</tspan><tspan x="-30.843" y="21.6">events</tspan></text><text class="b" transform="translate(747.262 9670.579)"><tspan x="-21.636" y="0">map</tspan></text><line class="d" y1="25.602" transform="translate(427.165 9544.339)"/><line class="d" y1="25.602" transform="translate(427.088 9613.335)"/><line class="d" y1="25.602" transform="translate(587.175 9613.335)"/><line class="d" y1="25.602" transform="translate(747.261 9613.335)"/><line class="d" y1="25.602" transform="translate(267.001 9613.335)"/><line class="d" y1="25.602" transform="translate(427.088 9693.799)"/><line class="d" y1="25.602" transform="translate(587.175 9693.799)"/><line class="d" y1="25.602" transform="translate(747.261 9693.799)"/><line class="d" y1="25.602" transform="translate(267.001 9693.799)"/><line class="d" x2="480.261" transform="translate(267.001 9613.335)"/><line class="d" y1="25.602" transform="translate(507.376 9809.533)"/><line class="d" y2="25.602" transform="translate(426.675 9783.931)"/><line class="d" y2="25.602" transform="translate(267.001 9783.931)"/><line class="d" y2="25.602" transform="translate(746.524 9783.931)"/><line class="d" y2="25.602" transform="translate(587.175 9783.931)"/><line class="d" x1="479.77" transform="translate(267.491 9809.533)"/><rect class="e" width="116.842" height="29.18" transform="translate(368.667 9503.95)"/><text class="f" transform="translate(427.088 9524.158)"><tspan x="-49.986" y="0">main page</tspan></text><rect class="e" width="102.996" height="29.081" rx="14.541" transform="translate(456.286 9859.336)"/><text class="f" transform="translate(508.339 9879.315)"><tspan x="-44.568" y="0">close app</tspan></text><line class="d" y1="25.602" transform="translate(425.887 9466.521)"/><text class="g" transform="translate(423.414 9445.249)"><tspan x="-24.939" y="0">log in</tspan></text><line class="d" x1="25.602" transform="translate(346.943 9440.03)"/><rect class="e" width="65.24" height="28.403" rx="14.201" transform="translate(264.02 9424.988)"/><text class="f" transform="translate(296.289 9445.124)"><tspan x="-21.627" y="0">start</tspan></text><text class="a" transform="translate(456.286 9437)"><tspan x="-4.662" y="0">*</tspan></text></g></svg>