<svg xmlns="http://www.w3.org/2000/svg" width="668.823" height="455.053" viewBox="0 0 668.823 455.053"><defs><style>.a,.b{fill:none;stroke-miterlimit:10;}.a{stroke:#888d72;stroke-width:0.5px;}.b{stroke:#3a5159;}.c{fill:#888d72;}.c,.d,.f,.g{font-size:18px;font-family:Poppins-SemiBold, Poppins;font-weight:600;}.d{fill:#3a5159;}.e,.g{fill:#d3403b;}.f{fill:#ede5ce;}</style></defs><g transform="translate(-1040 -9426)"><line class="a" y1="25.602" transform="translate(1232.655 9699.479)"/><line class="a" y1="25.602" transform="translate(1391.839 9699.479)"/><line class="a" y1="25.602" transform="translate(1072.491 9699.479)"/><line class="a" x2="319.348" transform="translate(1072.491 9699.479)"/><rect class="b" width="121.595" height="27.745" transform="translate(1171.122 9583.387)"/><text class="c" transform="translate(1072 9752.981)"><tspan x="-28.494" y="0">flight?</tspan><tspan x="-31.968" y="21.6">yes/no</tspan></text><text class="c" transform="translate(1232.655 9753.107)"><tspan x="-28.08" y="0">hotel?</tspan><tspan x="-31.968" y="21.6">yes/no</tspan></text><text class="d" transform="translate(1538.977 9875.053)"><tspan x="-40.626" y="0">confirm?</tspan></text><text class="c" transform="translate(1538.074 9803.822)"><tspan x="-15.903" y="0">yes</tspan></text><text class="d" transform="translate(1538.977 9704.022)"><tspan x="-56.862" y="0">purchase all</tspan><tspan x="-58.068" y="21.6">in 1 payment</tspan></text><line class="a" y2="25.602" transform="translate(1538.977 9744.969)"/><line class="a" y2="199.975" transform="translate(1662.741 9651.588)"/><line class="a" y2="25.602" transform="translate(1538.977 9824.127)"/><path class="a" d="M607.4,259.384H560.946v50.274" transform="translate(978.031 9361.354)"/><line class="a" y1="25.602" transform="translate(1231.674 9818.157)"/><line class="a" y2="25.602" transform="translate(1231.674 9792.556)"/><line class="a" y2="25.602" transform="translate(1072 9792.556)"/><line class="a" y2="25.602" transform="translate(1391.348 9792.556)"/><line class="a" x1="319.348" transform="translate(1072.491 9818.157)"/><text class="c" transform="translate(1391.839 9753.107)"><tspan x="-36.981" y="0">rentals?</tspan><tspan x="-31.968" y="21.6">yes/no</tspan></text><text class="c" transform="translate(1662.234 9875.053)"><tspan x="-11.691" y="0">no</tspan></text><line class="a" x1="25.602" transform="translate(1596.396 9866.112)"/><line class="a" x1="140.498" transform="translate(1343.301 9869.479)"/><text class="d" transform="translate(1231.919 9602.653)"><tspan x="-54.342" y="0">search trips</tspan></text><text class="d" transform="translate(1232.165 9674.793)"><tspan x="-55.719" y="0">select dates</tspan></text><text class="d" transform="translate(1232.165 9875.053)"><tspan x="-100.026" y="0">see all buying options</tspan></text><line class="a" y1="25.602" transform="translate(1232.165 9548.693)"/><line class="a" x1="25.602" transform="translate(1304.169 9757.535)"/><line class="a" x1="25.602" transform="translate(1137.343 9757.535)"/><line class="a" y1="25.602" transform="translate(1232.165 9620.222)"/><rect class="e" width="116.842" height="29.18" transform="translate(1172.172 9509.818)"/><text class="f" transform="translate(1230.593 9530.026)"><tspan x="-49.986" y="0">main page</tspan></text><rect class="e" width="102.996" height="29.081" rx="14.541" transform="translate(1605.827 9614.353)"/><text class="f" transform="translate(1657.88 9634.332)"><tspan x="-44.568" y="0">close app</tspan></text><line class="a" y1="25.602" transform="translate(1232.265 9474.521)"/><text class="g" transform="translate(1229.792 9453.25)"><tspan x="-24.939" y="0">log in</tspan></text><line class="a" x1="25.602" transform="translate(1153.321 9448.03)"/><rect class="e" width="65.24" height="28.403" rx="14.201" transform="translate(1070.398 9432.988)"/><text class="f" transform="translate(1102.667 9453.124)"><tspan x="-21.627" y="0">start</tspan></text><text class="c" transform="translate(1262.664 9445)"><tspan x="-4.662" y="0">*</tspan></text></g></svg>