<svg xmlns="http://www.w3.org/2000/svg" width="853.276" height="737.283" viewBox="0 0 853.276 737.283"><defs><style>.a,.f{fill:#d3403b;}.b{fill:#888d72;}.b,.c,.e,.f{font-size:22px;font-family:Poppins-SemiBold, Poppins;font-weight:600;}.c{fill:#3a5159;}.d,.g,.h{fill:none;stroke-miterlimit:10;}.d,.h{stroke:#888d72;}.d,.g{stroke-width:2px;}.e{fill:#ede5ce;}.g{stroke:#3a5159;}.h{stroke-dasharray:5 5;}</style></defs><rect class="a" width="82.887" height="36.086" rx="14.201" transform="translate(8.067 19.75)"/><rect class="a" width="148.447" height="37.073" transform="translate(175.71 233.689)"/><text class="b" transform="translate(246.488 526.319)"><tspan x="-42.867" y="0">list/info</tspan></text><text class="b" transform="translate(245.815 729.283)"><tspan x="-14.289" y="0">no</tspan></text><text class="b" transform="translate(43 526.319)"><tspan x="-42.867" y="0">list/info</tspan></text><text class="b" transform="translate(448.729 526.319)"><tspan x="-42.867" y="0">list/info</tspan></text><text class="c" transform="translate(246.299 337.437)"><tspan x="-37.697" y="0">events</tspan></text><text class="c" transform="translate(244.701 657.253)"><tspan x="-58.476" y="0">get ticket?</tspan></text><text class="c" transform="translate(635.586 530.458)"><tspan x="-53.306" y="0">purchase</tspan><tspan x="-37.422" y="26">tickets</tspan></text><text class="c" transform="translate(42.27 430.482)"><tspan x="-40.073" y="0">nearby</tspan></text><text class="c" transform="translate(245.348 430.643)"><tspan x="-57.684" y="0">upcoming</tspan></text><text class="c" transform="translate(446.967 430.643)"><tspan x="-72.017" y="0">bookmarked</tspan></text><line class="d" y1="32.528" transform="translate(247.685 279.059)"/><line class="d" y1="32.528" transform="translate(247.685 359.095)"/><line class="d" y1="32.528" transform="translate(449.926 359.095)"/><line class="d" y1="32.528" transform="translate(44.197 359.095)"/><line class="d" y1="32.528" transform="translate(247.685 449.296)"/><line class="d" y1="32.528" transform="translate(247.061 593.117)"/><line class="d" y1="32.528" transform="translate(247.061 672.248)"/><line class="d" x1="242.372" transform="translate(337.887 648.349)"/><path class="d" d="M2.676-925.144v255.419H-505.35" transform="translate(792.218 1390.704)"/><line class="d" y1="32.528" transform="translate(449.926 449.296)"/><line class="d" y2="32.528" transform="translate(637.488 583.618)"/><path class="d" d="M-170.363-956.451h-59.015v63.873" transform="translate(866.866 1382.235)"/><line class="d" y1="32.528" transform="translate(44.197 449.296)"/><line class="d" x2="405.73" transform="translate(44.197 359.095)"/><line class="d" y2="32.528" transform="translate(247.061 560.589)"/><line class="d" y2="32.528" transform="translate(44.197 560.589)"/><line class="d" y2="32.528" transform="translate(449.926 560.589)"/><line class="d" x1="405.73" transform="translate(44.82 593.117)"/><text class="b" transform="translate(251.226 133.656)"><tspan x="-19.437" y="0">yes</tspan></text><text class="b" transform="translate(447.491 50.259)"><tspan x="-14.289" y="0">no</tspan></text><text class="b" transform="translate(632.99 50.26)"><tspan x="-60.797" y="0">create free</tspan><tspan x="-46.53" y="26">account</tspan></text><text class="e" transform="translate(48.115 44.193)"><tspan x="-26.433" y="0">start</tspan></text><text class="b" transform="translate(446.483 242.18)"><tspan x="-30.481" y="0">log in</tspan><tspan x="-59.411" y="26">successful</tspan></text><text class="b" transform="translate(250.299 39.922)"><tspan x="-45.452" y="0">have an</tspan><tspan x="-52.448" y="26">account?</tspan></text><text class="f" transform="translate(446.974 133.656)"><tspan x="-30.481" y="0">log in</tspan></text><text class="e" transform="translate(247.409 258.224)"><tspan x="-61.094" y="0">main page</tspan></text><line class="d" y1="32.528" transform="translate(448.736 170.986)"/><line class="d" x1="32.528" transform="translate(113.421 38.861)"/><path class="d" d="M-325.3-1177.924h120.221v-35.525" transform="translate(840.921 1312.719)"/><line class="d" x1="32.528" transform="translate(333.673 127.636)"/><line class="d" x1="32.528" transform="translate(333.673 45.492)"/><line class="d" x1="32.528" transform="translate(516.124 45.492)"/><line class="d" x2="32.528" transform="translate(338.092 249.539)"/><line class="d" y1="32.528" transform="translate(251.93 76.207)"/><rect class="g" width="107.962" height="28.215" transform="translate(193.703 317.026)"/><rect class="a" width="130.855" height="36.947" rx="14.541" transform="translate(722.421 407.312)"/><text class="e" transform="translate(786.652 431.556)"><tspan x="-54.472" y="0">close app</tspan></text><rect class="h" width="571.575" height="150.932" transform="translate(165.63 6.205)"/><text class="b" transform="translate(752.929 23)"><tspan x="-5.698" y="0">*</tspan></text></svg>