<svg xmlns="http://www.w3.org/2000/svg" width="586.8" height="462.928" viewBox="0 0 586.8 462.928"><defs><style>.a{fill:#3a5159;}.a,.c,.f,.g{font-size:18px;font-family:Poppins-SemiBold, Poppins;font-weight:600;}.b,.d{fill:none;stroke-miterlimit:10;}.b{stroke:#888d72;stroke-width:0.5px;}.c{fill:#888d72;}.d{stroke:#3a5159;}.e,.g{fill:#d3403b;}.f{fill:#ede5ce;}</style></defs><text class="a" transform="translate(162.077 194.817)"><tspan x="-42.354" y="0">assistant</tspan></text><line class="b" y1="25.602" transform="translate(162.077 136.858)"/><text class="c" transform="translate(162.077 268.417)"><tspan x="-77.895" y="0">filter preferences</tspan></text><rect class="d" width="104.657" height="24.864" transform="translate(110.239 175.519)"/><line class="b" y1="25.602" transform="translate(162.077 214.457)"/><text class="c" transform="translate(162.077 346.016)"><tspan x="-74.538" y="0">list personalized</tspan><tspan x="-67.635" y="21.6">travel itinerary</tspan></text><line class="b" y1="25.602" transform="translate(162.077 292.057)"/><text class="c" transform="translate(162.077 434.928)"><tspan x="-74.367" y="0">select favorites/</tspan><tspan x="-41.985" y="21.6">compare</tspan></text><line class="b" y1="25.602" transform="translate(162.077 380.968)"/><text class="a" transform="translate(411.538 445.696)"><tspan x="-40.626" y="0">confirm?</tspan></text><text class="c" transform="translate(410.635 374.467)"><tspan x="-15.903" y="0">yes</tspan></text><text class="a" transform="translate(411.538 274.666)"><tspan x="-56.862" y="0">purchase all</tspan><tspan x="-58.068" y="21.6">in 1 payment</tspan></text><line class="b" y2="25.602" transform="translate(411.538 315.612)"/><line class="b" y2="199.975" transform="translate(535.302 222.231)"/><line class="b" y2="25.602" transform="translate(411.538 394.771)"/><path class="b" d="M-254.786,253.406h-46.451v50.274" transform="translate(712.775 -62.024)"/><text class="c" transform="translate(534.795 445.696)"><tspan x="-11.691" y="0">no</tspan></text><line class="b" x1="25.602" transform="translate(468.957 436.756)"/><line class="b" x1="94.736" transform="translate(261.624 440.122)"/><rect class="e" width="116.842" height="29.18" transform="translate(102.084 90.9)"/><text class="f" transform="translate(160.505 111.108)"><tspan x="-49.986" y="0">main page</tspan></text><rect class="e" width="102.996" height="29.081" rx="14.541" transform="translate(483.804 178.277)"/><text class="f" transform="translate(535.857 198.257)"><tspan x="-44.568" y="0">close app</tspan></text><line class="b" y1="25.602" transform="translate(161.868 48.521)"/><text class="g" transform="translate(159.394 27.25)"><tspan x="-24.939" y="0">log in</tspan></text><line class="b" x1="25.602" transform="translate(82.923 22.03)"/><rect class="e" width="65.24" height="28.403" rx="14.201" transform="translate(0 6.988)"/><text class="f" transform="translate(32.27 27.124)"><tspan x="-21.627" y="0">start</tspan></text><text class="c" transform="translate(192.267 19)"><tspan x="-4.662" y="0">*</tspan></text></svg>