<svg xmlns="http://www.w3.org/2000/svg" width="671.823" height="486.939" viewBox="0 0 671.823 486.939"><defs><style>.a,.f{fill:#d3403b;}.b{fill:#3a5159;}.b,.d,.e,.f{font-size:18px;font-family:Poppins-SemiBold, Poppins;font-weight:600;}.c,.g{fill:none;stroke-miterlimit:10;}.c{stroke:#888d72;stroke-width:0.5px;}.d{fill:#888d72;}.e{fill:#ede5ce;}.g{stroke:#3a5159;}</style></defs><g transform="translate(-1037.253 -8734)"><rect class="a" width="102.996" height="29.081" rx="14.541" transform="translate(1606.08 8946.238)"/><text class="b" transform="translate(1232.663 8936.539)"><tspan x="-73.53" y="0">new destination</tspan></text><line class="c" y1="25.602" transform="translate(1232.418 8878.58)"/><line class="c" y1="25.602" transform="translate(1128.763 8956.179)"/><text class="d" transform="translate(1130.198 9010.139)"><tspan x="-69.57" y="0">select country/</tspan><tspan x="-16.857" y="21.6">city</tspan></text><text class="d" transform="translate(1335.916 9010.139)"><tspan x="-62.649" y="0">popular cities</tspan></text><line class="c" y1="25.602" transform="translate(1332.963 8957.148)"/><path class="c" d="M135.061,262.472" transform="translate(978.775 8693.707)"/><line class="c" x1="204.2" transform="translate(1128.763 8957.148)"/><line class="c" y1="25.602" transform="translate(1232.908 9064.525)"/><line class="c" y1="25.602" transform="translate(1392.092 9064.525)"/><line class="c" y1="25.602" transform="translate(1072.744 9064.525)"/><line class="c" x2="319.348" transform="translate(1072.744 9064.525)"/><text class="d" transform="translate(1072.253 9118.028)"><tspan x="-34.677" y="0">best for</tspan><tspan x="-29.088" y="21.6">family</tspan></text><text class="d" transform="translate(1232.908 9118.154)"><tspan x="-34.677" y="0">best for</tspan><tspan x="-47.709" y="21.6">solo travel</tspan></text><text class="d" transform="translate(1392.092 9118.154)"><tspan x="-34.677" y="0">best for</tspan><tspan x="-36.171" y="21.6">couples</tspan></text><line class="c" x1="25.602" transform="translate(1304.422 9122.582)"/><line class="c" x1="25.602" transform="translate(1137.596 9122.582)"/><text class="b" transform="translate(1539.23 9214.938)"><tspan x="-40.626" y="0">confirm?</tspan></text><text class="d" transform="translate(1538.327 9143.709)"><tspan x="-15.903" y="0">yes</tspan></text><text class="e" transform="translate(1658.133 8966.219)"><tspan x="-44.568" y="0">close app</tspan></text><text class="b" transform="translate(1539.23 9043.909)"><tspan x="-56.862" y="0">purchase all</tspan><tspan x="-58.068" y="21.6">in 1 payment</tspan></text><line class="c" y2="25.602" transform="translate(1539.23 9084.854)"/><line class="c" y2="199.975" transform="translate(1662.994 8991.475)"/><line class="c" y2="25.602" transform="translate(1539.23 9164.014)"/><path class="c" d="M606.906,266.917H560.455v50.274" transform="translate(978.775 8693.707)"/><text class="d" transform="translate(1662.487 9214.939)"><tspan x="-11.691" y="0">no</tspan></text><line class="c" x1="25.602" transform="translate(1596.648 9205.999)"/><line class="c" x1="140.498" transform="translate(1343.553 9209.365)"/><text class="b" transform="translate(1232.417 9214.938)"><tspan x="-65.142" y="0">bookmark trip</tspan></text><rect class="a" width="116.842" height="29.18" transform="translate(1172.425 8828.761)"/><text class="e" transform="translate(1230.846 8848.969)"><tspan x="-49.986" y="0">main page</tspan></text><line class="c" y1="25.602" transform="translate(1232.418 8782.52)"/><text class="f" transform="translate(1229.944 8761.249)"><tspan x="-24.939" y="0">log in</tspan></text><line class="c" x1="25.602" transform="translate(1153.474 8756.029)"/><rect class="a" width="65.24" height="28.403" rx="14.201" transform="translate(1070.55 8740.987)"/><text class="e" transform="translate(1102.82 8761.123)"><tspan x="-21.627" y="0">start</tspan></text><text class="d" transform="translate(1262.817 8753)"><tspan x="-4.662" y="0">*</tspan></text><rect class="g" width="163.621" height="24.864" transform="translate(1150.852 8918.233)"/></g></svg>